# xmcd CD database file
#
# Track frame offsets:
#	150
#	32715
#	78352
#	145737
#	184680
#	251452
#
# Disc length: 3998 seconds
#
# Revision: 3
# Processed by: cddbd v1.5.2PL0 Copyright (c) Steve Scherf et al.
# Submitted via: CDex 1.51
#
DISCID=440f9c06
DTITLE=Brad Mehldau - The Art of the Trio 5 - 2 Progression
DYEAR=2001
DGENRE=Jazz
TTITLE0=Quit
TTITLE1=Secret Love
TTITLE2=Sublation
TTITLE3=Resignation
TTITLE4=Long Ago And Far Away
TTITLE5=How Long Has This Been Going On?
EXTD=YEAR: 2001
EXTT0=
EXTT1=
EXTT2=
EXTT3=
EXTT4=
EXTT5=
PLAYORDER=
